<svg width="20" height="21" viewBox="0 0 20 21" fill="none" xmlns="http://www.w3.org/2000/svg">
<path d="M17.5826 13.1547C16.61 13.0347 15.6441 12.8645 14.689 12.6449C14.4559 12.567 14.2065 12.5505 13.9651 12.5972C13.7237 12.6439 13.4985 12.7521 13.3111 12.9113C13.0677 13.1593 12.365 13.8529 11.6347 14.5694C9.01816 13.2831 6.90208 11.1654 5.61784 8.54793C6.32976 7.81764 6.99575 7.11951 7.26673 6.87608C7.42597 6.68875 7.53415 6.46349 7.58082 6.2221C7.62749 5.98071 7.61106 5.73136 7.53313 5.49817C7.31322 4.54157 7.14305 3.57421 7.0233 2.59999C7.01047 2.47593 6.97252 2.35578 6.91174 2.24687C6.85097 2.13795 6.76865 2.04256 6.66981 1.96649C6.57097 1.89043 6.45767 1.83529 6.33683 1.80443C6.21598 1.77358 6.09012 1.76765 5.96691 1.78702H2.05367C1.89214 1.80161 1.74093 1.87271 1.62667 1.98781C1.51241 2.10291 1.44242 2.25464 1.42902 2.41627C1.1764 5.94829 3.1468 9.72833 3.5464 10.454V10.4816L3.60151 10.5872C5.03193 13.0681 7.09154 15.1277 9.57242 16.5581L9.77452 16.673C10.6931 17.1598 14.3446 18.997 17.7572 18.7444C17.9204 18.7331 18.0743 18.664 18.1913 18.5496C18.3083 18.4351 18.3807 18.2827 18.3956 18.1198V14.2111C18.415 14.0879 18.409 13.962 18.3782 13.8412C18.3473 13.7204 18.2922 13.6071 18.2161 13.5082C18.1401 13.4094 18.0447 13.3271 17.9358 13.2663C17.8268 13.2055 17.7067 13.1675 17.5826 13.1547Z" fill="white"/>
</svg>
