<svg width="20" height="21" fill="none" xmlns="http://www.w3.org/2000/svg"><path d="M17.583 13.155c-.973-.12-1.939-.29-2.894-.51a1.428 1.428 0 00-1.378.266c-.243.248-.946.942-1.676 1.658a13.178 13.178 0 01-6.017-6.021c.712-.73 1.378-1.428 1.649-1.672a1.428 1.428 0 00.266-1.378c-.22-.956-.39-1.924-.51-2.898a.918.918 0 00-1.056-.813H2.054a.689.689 0 00-.625.63c-.253 3.531 1.718 7.311 2.117 8.037v.028l.056.105a16.282 16.282 0 005.97 5.971l.203.115c.918.487 4.57 2.324 7.982 2.071a.69.69 0 00.639-.624v-3.91a.919.919 0 00-.813-1.056z" fill="#fff"/></svg>