<svg width="17" height="17" viewBox="0 0 17 17" fill="none" xmlns="http://www.w3.org/2000/svg">
<g clip-path="url(#clip0_519_3816)">
<path d="M13.1302 7.8495L5.71328 0.432762C5.54174 0.261083 5.31274 0.166504 5.06857 0.166504C4.8244 0.166504 4.59541 0.261083 4.42386 0.432762L3.87766 0.978828C3.52224 1.33465 3.52224 1.91297 3.87766 2.26825L10.1058 8.49638L3.87075 14.7314C3.69921 14.9031 3.60449 15.132 3.60449 15.376C3.60449 15.6203 3.69921 15.8492 3.87075 16.021L4.41695 16.5669C4.58863 16.7386 4.81749 16.8332 5.06166 16.8332C5.30583 16.8332 5.53483 16.7386 5.70637 16.5669L13.1302 9.1434C13.3021 8.97118 13.3966 8.74123 13.396 8.49679C13.3966 8.2514 13.3021 8.02159 13.1302 7.8495Z" fill="white"/>
</g>
<defs>
<clipPath id="clip0_519_3816">
<rect width="16.6667" height="16.6667" fill="white" transform="translate(0.166992 0.166504)"/>
</clipPath>
</defs>
</svg>
