<svg width="13" height="8" viewBox="0 0 13 8" fill="none" xmlns="http://www.w3.org/2000/svg">
<path d="M7.00987 7.33333L12.5393 1.99318C12.6673 1.86967 12.7378 1.70479 12.7378 1.52899C12.7378 1.35319 12.6673 1.18831 12.5393 1.0648L12.1322 0.671535C11.8669 0.415635 11.4357 0.415635 11.1709 0.671535L6.5276 5.15579L1.87918 0.666559C1.75119 0.543048 1.58056 0.474854 1.39863 0.474854C1.21649 0.474854 1.04587 0.543048 0.917772 0.666559L0.510764 1.05982C0.382771 1.18343 0.312261 1.34821 0.312261 1.52402C0.312261 1.69982 0.382771 1.8647 0.510764 1.98821L6.04523 7.33333C6.17363 7.45714 6.34506 7.52514 6.5273 7.52475C6.71025 7.52514 6.88158 7.45714 7.00987 7.33333Z" fill="#28553F"/>
</svg>
