<svg width="17" height="16" viewBox="0 0 17 16" fill="none" xmlns="http://www.w3.org/2000/svg">
<path fill-rule="evenodd" clip-rule="evenodd" d="M14.3618 2.74255C15.0471 2.92712 15.5875 3.4674 15.7719 4.15282C16.1147 5.40477 16.1015 8.01438 16.1015 8.01438C16.1015 8.01438 16.1015 10.6107 15.772 11.8627C15.5875 12.548 15.0472 13.0884 14.3618 13.2729C13.1097 13.6025 8.10153 13.6025 8.10153 13.6025C8.10153 13.6025 3.10643 13.6025 1.8413 13.2598C1.15588 13.0753 0.615598 12.5349 0.431029 11.8496C0.101562 10.6107 0.101562 8.00119 0.101562 8.00119C0.101562 8.00119 0.101562 5.40477 0.431029 4.15282C0.615476 3.46752 1.16906 2.91394 1.84118 2.72949C3.09325 2.3999 8.10141 2.3999 8.10141 2.3999C8.10141 2.3999 13.1097 2.3999 14.3618 2.74255ZM10.6715 8.00121L6.50681 10.3999V5.60253L10.6715 8.00121Z" fill="white"/>
</svg>
