<svg width="21" height="22" viewBox="0 0 21 22" fill="none" xmlns="http://www.w3.org/2000/svg">
<path d="M9.275 12.575L7.37188 10.6719C7.21146 10.5115 7.01458 10.4313 6.78125 10.4313C6.54792 10.4313 6.34375 10.5187 6.16875 10.6937C6.00833 10.8542 5.92812 11.0583 5.92812 11.3063C5.92812 11.5542 6.00833 11.7583 6.16875 11.9187L8.6625 14.4125C8.82292 14.5729 9.02708 14.6531 9.275 14.6531C9.52292 14.6531 9.72708 14.5729 9.8875 14.4125L14.8531 9.44688C15.0135 9.28646 15.0938 9.08958 15.0938 8.85625C15.0938 8.62292 15.0063 8.41875 14.8313 8.24375C14.6708 8.08333 14.4667 8.00312 14.2188 8.00312C13.9708 8.00312 13.7667 8.08333 13.6062 8.24375L9.275 12.575ZM10.5 19.75C9.28958 19.75 8.15208 19.5202 7.0875 19.0605C6.02292 18.6014 5.09688 17.9781 4.30938 17.1906C3.52188 16.4031 2.89858 15.4771 2.4395 14.4125C1.97983 13.3479 1.75 12.2104 1.75 11C1.75 9.78958 1.97983 8.65208 2.4395 7.5875C2.89858 6.52292 3.52188 5.59688 4.30938 4.80938C5.09688 4.02188 6.02292 3.39829 7.0875 2.93862C8.15208 2.47954 9.28958 2.25 10.5 2.25C11.7104 2.25 12.8479 2.47954 13.9125 2.93862C14.9771 3.39829 15.9031 4.02188 16.6906 4.80938C17.4781 5.59688 18.1014 6.52292 18.5605 7.5875C19.0202 8.65208 19.25 9.78958 19.25 11C19.25 12.2104 19.0202 13.3479 18.5605 14.4125C18.1014 15.4771 17.4781 16.4031 16.6906 17.1906C15.9031 17.9781 14.9771 18.6014 13.9125 19.0605C12.8479 19.5202 11.7104 19.75 10.5 19.75Z" fill="#28553F"/>
</svg>
