<svg width="17" height="17" viewBox="0 0 17 17" fill="none" xmlns="http://www.w3.org/2000/svg">
<g clip-path="url(#clip0_519_3822)">
<path d="M4.03683 7.84975L11.4537 0.433006C11.6253 0.261327 11.8542 0.166748 12.0984 0.166748C12.3426 0.166748 12.5716 0.261327 12.7431 0.433006L13.2893 0.979072C13.6447 1.3349 13.6447 1.91321 13.2893 2.26849L7.0612 8.49663L13.2962 14.7317C13.4678 14.9033 13.5625 15.1322 13.5625 15.3762C13.5625 15.6206 13.4678 15.8494 13.2962 16.0212L12.75 16.5672C12.5784 16.7388 12.3495 16.8334 12.1053 16.8334C11.8612 16.8334 11.6322 16.7388 11.4606 16.5672L4.03683 9.14364C3.86488 8.97142 3.77044 8.74148 3.77098 8.49703C3.77044 8.25164 3.86488 8.02183 4.03683 7.84975Z" fill="white"/>
</g>
<defs>
<clipPath id="clip0_519_3822">
<rect width="16.6667" height="16.6667" fill="white" transform="matrix(-1 0 0 1 17 0.166748)"/>
</clipPath>
</defs>
</svg>
