<svg width="17" height="16" viewBox="0 0 17 16" fill="none" xmlns="http://www.w3.org/2000/svg">
<path d="M11.81 0.6698L9.95845 0.666748C7.87834 0.666748 6.53409 2.08347 6.53409 4.27623V5.94045H4.67248C4.51161 5.94045 4.38135 6.07442 4.38135 6.23966V8.65092C4.38135 8.81617 4.51176 8.94998 4.67248 8.94998H6.53409V15.0344C6.53409 15.1996 6.66435 15.3334 6.82522 15.3334H9.25409C9.41496 15.3334 9.54522 15.1994 9.54522 15.0344V8.94998H11.7219C11.8827 8.94998 12.013 8.81617 12.013 8.65092L12.0139 6.23966C12.0139 6.16032 11.9832 6.08433 11.9286 6.02818C11.8741 5.97203 11.7999 5.94045 11.7226 5.94045H9.54522V4.52967C9.54522 3.8516 9.70252 3.50737 10.5624 3.50737L11.8097 3.50691C11.9704 3.50691 12.1006 3.37295 12.1006 3.20785V0.968861C12.1006 0.80392 11.9705 0.670105 11.81 0.6698Z" fill="white"/>
</svg>
