<svg width="17" height="16" viewBox="0 0 17 16" fill="none" xmlns="http://www.w3.org/2000/svg">
<path d="M14.7553 5.25329C14.7241 4.54484 14.6095 4.05778 14.4454 3.63574C14.2761 3.18776 14.0157 2.78668 13.6744 2.45326C13.341 2.11465 12.9373 1.85154 12.4945 1.68488C12.07 1.52077 11.5855 1.4062 10.877 1.37497C10.1633 1.34109 9.9367 1.33325 8.12646 1.33325C6.31621 1.33325 6.08962 1.34109 5.37853 1.37232C4.67008 1.40356 4.18302 1.51822 3.76109 1.68224C3.313 1.85154 2.91192 2.11201 2.5785 2.45326C2.2399 2.78668 1.97689 3.19041 1.81013 3.6332C1.64601 4.05778 1.53145 4.54219 1.50021 5.25064C1.46633 5.96438 1.4585 6.19097 1.4585 8.00122C1.4585 9.81147 1.46633 10.0381 1.49757 10.7492C1.5288 11.4576 1.64347 11.9447 1.80758 12.3667C1.97689 12.8147 2.2399 13.2158 2.5785 13.5492C2.91192 13.8878 3.31565 14.1509 3.75844 14.3176C4.18302 14.4817 4.66743 14.5962 5.37598 14.6275C6.08698 14.6588 6.31366 14.6665 8.12391 14.6665C9.93416 14.6665 10.1607 14.6588 10.8718 14.6275C11.5803 14.5962 12.0673 14.4817 12.4893 14.3176C13.3853 13.9711 14.0938 13.2627 14.4402 12.3667C14.6043 11.9421 14.7189 11.4576 14.7502 10.7492C14.7814 10.0381 14.7892 9.81147 14.7892 8.00122C14.7892 6.19097 14.7866 5.96438 14.7553 5.25329ZM13.5547 10.6971C13.526 11.3482 13.4166 11.6999 13.3254 11.9343C13.1014 12.5151 12.6404 12.9761 12.0595 13.2002C11.8251 13.2914 11.4709 13.4007 10.8223 13.4293C10.119 13.4607 9.90811 13.4684 8.1291 13.4684C6.35009 13.4684 6.13653 13.4607 5.43581 13.4293C4.78464 13.4007 4.43301 13.2914 4.19859 13.2002C3.90953 13.0934 3.64642 12.9241 3.43286 12.7027C3.21146 12.4865 3.04216 12.226 2.93532 11.9369C2.84416 11.7025 2.73479 11.3482 2.70619 10.6997C2.67486 9.99644 2.66712 9.78542 2.66712 8.00641C2.66712 6.2274 2.67486 6.01383 2.70619 5.31322C2.73479 4.66205 2.84416 4.31042 2.93532 4.076C3.04216 3.78684 3.21146 3.52382 3.4355 3.31016C3.65161 3.08876 3.91208 2.91946 4.20124 2.81273C4.43566 2.72156 4.78993 2.61219 5.43845 2.5835C6.14172 2.55226 6.35274 2.54443 8.13164 2.54443C9.9133 2.54443 10.1242 2.55226 10.8249 2.5835C11.4761 2.61219 11.8277 2.72156 12.0622 2.81273C12.3512 2.91946 12.6143 3.08876 12.8279 3.31016C13.0493 3.52637 13.2186 3.78684 13.3254 4.076C13.4166 4.31042 13.526 4.66459 13.5547 5.31322C13.5859 6.01648 13.5937 6.2274 13.5937 8.00641C13.5937 9.78542 13.5859 9.9938 13.5547 10.6971Z" fill="white"/>
<path d="M8.12645 4.57607C6.23552 4.57607 4.70131 6.11019 4.70131 8.00123C4.70131 9.89226 6.23552 11.4264 8.12645 11.4264C10.0175 11.4264 11.5516 9.89226 11.5516 8.00123C11.5516 6.11019 10.0175 4.57607 8.12645 4.57607ZM8.12645 10.223C6.89971 10.223 5.90465 9.22807 5.90465 8.00123C5.90465 6.77438 6.89971 5.77941 8.12645 5.77941C9.3533 5.77941 10.3483 6.77438 10.3483 8.00123C10.3483 9.22807 9.3533 10.223 8.12645 10.223Z" fill="white"/>
<path d="M12.4868 4.44065C12.4868 4.88223 12.1287 5.24027 11.687 5.24027C11.2455 5.24027 10.8874 4.88223 10.8874 4.44065C10.8874 3.99898 11.2455 3.64103 11.687 3.64103C12.1287 3.64103 12.4868 3.99898 12.4868 4.44065Z" fill="white"/>
</svg>
