<svg width="17" height="16" viewBox="0 0 17 16" fill="none" xmlns="http://www.w3.org/2000/svg">
<path d="M15.1016 3.84839C14.5863 4.06701 14.0334 4.21528 13.4525 4.28147C14.0456 3.94137 14.4997 3.40192 14.7149 2.76109C14.1585 3.07605 13.5443 3.30475 12.8899 3.42873C12.3659 2.89346 11.6206 2.56006 10.7938 2.56006C9.20776 2.56006 7.92175 3.79143 7.92175 5.30929C7.92175 5.52457 7.94712 5.73482 7.99612 5.93588C5.60957 5.8211 3.49335 4.72627 2.07699 3.06265C1.8294 3.46809 1.68856 3.94051 1.68856 4.44481C1.68856 5.39892 2.19597 6.24078 2.96583 6.73332C2.49516 6.71825 2.05249 6.59427 1.66495 6.3882V6.42254C1.66495 7.75444 2.65527 8.86602 3.96839 9.11901C3.7278 9.181 3.47411 9.21534 3.21165 9.21534C3.0262 9.21534 2.84685 9.19775 2.67101 9.16424C3.03668 10.2574 4.097 11.0523 5.35327 11.0741C4.37082 11.8113 3.13205 12.2494 1.78656 12.2494C1.55473 12.2494 1.32639 12.236 1.10156 12.2117C2.37271 12.9933 3.8818 13.4489 5.50375 13.4489C10.7869 13.4489 13.6747 9.25891 13.6747 5.62511L13.6651 5.2691C14.2294 4.88374 14.7175 4.39958 15.1016 3.84839Z" fill="white"/>
</svg>
